# xmcd CD database file
#
# Track frame offsets:
#	150
#	872
#	21955
#	38930
#	60122
#	84512
#	114875
#	130480
#	152442
#	178562
#
# Disc length: 2443 seconds
#
# Revision: 1
# Processed by: cddbd v1.5.1PL0 Copyright (c) Steve Scherf et al.
# Submitted via: CDex 1.50Beta7
#
DISCID=6509890a
DTITLE=Akihabara Electric Circus - Toy Music Dancing Super Mario Brothers
DYEAR=1989
DGENRE=Game
TTITLE0=ディスク・システムのテーマ
TTITLE1=謎の村雨城
TTITLE2=ファミコン探偵倶楽部　消えた後継者
TTITLE3=スーパーマリオブラザーズ
TTITLE4=パルテナの鏡
TTITLE5=新・鬼ヶ島
TTITLE6=ファミコン・グランプリ・F1レース〜3Dホットラリー
TTITLE7=メトロイド
TTITLE8=ゼルダの伝説
TTITLE9=スーパーマリオブラザーズ（カリブ・ヴァージョン）
EXTD=YEAR: 1989
EXTT0=
EXTT1=
EXTT2=
EXTT3=
EXTT4=
EXTT5=
EXTT6=
EXTT7=
EXTT8=
EXTT9=
PLAYORDER=
